<svg width="349" height="294" viewBox="0 0 349 294" fill="none" xmlns="http://www.w3.org/2000/svg">
<path d="M74.3562 67.6984V67.8873C74.3562 71.6907 73.6912 75.3417 72.4773 78.7307L72.5505 78.5052C71.2755 82.016 69.2197 84.9843 66.5722 87.2944L66.5478 87.3127C63.9796 89.6228 60.5635 91.0308 56.8179 91.0308C56.7203 91.0308 56.6227 91.0308 56.5251 91.0308H56.5373C51.3948 90.9942 46.7464 88.9096 43.3607 85.5512C39.5541 82.0525 36.565 77.7372 34.6556 72.8793L34.5763 72.6477C32.8255 68.3932 31.7824 63.4622 31.7153 58.2935V58.2691C31.7153 58.2143 31.7153 58.1472 31.7153 58.0802C31.7153 54.2768 32.3802 50.6258 33.5942 47.2368L33.521 47.4624C34.7959 43.9515 36.8517 40.9832 39.4992 38.6731L39.5236 38.6548C42.0919 36.3447 45.5141 34.9307 49.2597 34.9307C49.3695 34.9307 49.4793 34.9307 49.5891 34.9368H49.5708C54.7133 34.9672 59.3678 37.0518 62.7474 40.4163C66.5112 43.9089 69.4821 48.2121 71.3853 53.0395L71.4646 53.2711C73.2276 57.5377 74.2708 62.4931 74.3257 67.6801V67.6984H74.3562ZM41.7502 113.705C41.7563 113.857 41.7563 114.034 41.7563 114.217C41.7563 118.983 40.2557 123.396 37.6997 127.017L37.7485 126.944C35.3511 130.363 31.4225 132.576 26.9815 132.576C26.7802 132.576 26.5789 132.569 26.3776 132.563H26.4081C21.2045 132.496 16.4768 130.503 12.9021 127.261L12.9204 127.279C5.20963 120.641 0.274512 110.962 0.00610027 100.131V100.082C0 99.9358 0 99.7591 0 99.5823C0 94.7976 1.50067 90.3603 4.05668 86.7215L4.00788 86.7946C6.39308 83.3447 10.3278 81.1139 14.7871 81.1139C14.9823 81.1139 15.1836 81.12 15.3788 81.1261H15.3483C20.5518 81.1931 25.2795 83.1863 28.8543 86.4289L28.836 86.4106C36.5589 93.0848 41.4879 102.801 41.7502 113.674V113.717V113.705ZM79.334 111.133C88.6125 111.663 97.0004 115.07 103.723 120.464L103.637 120.397C112.294 126.572 119.547 134.063 125.275 142.657L125.47 142.968C130.497 149.691 133.712 158.029 134.249 167.086L134.255 167.208C134.261 167.367 134.267 167.556 134.267 167.739C134.267 170.201 133.663 172.529 132.595 174.571L132.632 174.492C131.583 176.388 129.997 177.869 128.069 178.753L128.008 178.777C126.233 179.624 124.165 180.289 122.005 180.66L121.859 180.679C119.809 181.014 117.455 181.203 115.051 181.203C114.899 181.203 114.746 181.203 114.594 181.203H114.618C108.066 180.752 101.984 179.216 96.3903 176.778L96.7441 176.918C91.6504 174.663 85.7393 173.133 79.5414 172.645L79.3523 172.633C72.6237 173.133 66.3892 174.645 60.594 177.016L61.0027 176.869C55.3843 179.167 48.8692 180.685 42.0613 181.099L41.8905 181.105C30.235 181.114 24.4072 176.483 24.4072 167.214C24.7 160.455 26.646 154.207 29.8486 148.795L29.7449 148.978C33.5088 141.974 37.9254 135.946 43.0679 130.619L43.0435 130.643C48.1982 125.274 54.0728 120.653 60.5391 116.935L60.9173 116.734C66.1574 113.443 72.4651 111.389 79.2364 111.12H79.3096L79.334 111.133ZM102.118 91.0368C102.033 91.0368 101.935 91.0368 101.838 91.0368C98.0923 91.0368 94.6762 89.6228 92.0957 87.3066L92.1079 87.3188C89.436 84.9843 87.3741 82.0221 86.1541 78.6514L86.1053 78.5052C84.9584 75.3418 84.2935 71.6907 84.2935 67.8873C84.2935 67.8203 84.2935 67.7532 84.2935 67.6862V67.6984C84.3484 62.487 85.3916 57.5377 87.2521 53.0029L87.1545 53.2711C89.1432 48.206 92.108 43.9089 95.8535 40.4346L95.8779 40.4163C99.2575 37.0579 103.912 34.9733 109.048 34.9429H109.054H109.335C113.081 34.9429 116.497 36.3569 119.077 38.6731L119.065 38.6609C121.737 40.9954 123.799 43.9576 125.019 47.3283L125.068 47.4746C126.233 50.6562 126.904 54.3316 126.904 58.1594V58.2813V58.2752C126.843 63.4683 125.794 68.4054 123.945 72.922L124.043 72.6538C122.054 77.7433 119.065 82.0586 115.283 85.5329L115.258 85.5573C111.873 88.9035 107.224 90.9881 102.088 91.0186H102.082L102.118 91.0368ZM143.295 81.1383C143.466 81.1322 143.661 81.1261 143.857 81.1261C148.316 81.1261 152.251 83.3569 154.605 86.7641L154.636 86.8068C157.143 90.3786 158.644 94.8098 158.644 99.6006C158.644 99.7774 158.644 99.948 158.637 100.125V100.1C158.369 110.98 153.434 120.659 145.772 127.248L145.723 127.291C142.167 130.515 137.439 132.508 132.248 132.576H132.236C132.065 132.582 131.863 132.588 131.662 132.588C127.221 132.588 123.293 130.381 120.926 126.998L120.895 126.956C118.388 123.408 116.887 118.989 116.887 114.229C116.887 114.052 116.887 113.869 116.893 113.693V113.717C117.156 102.801 122.085 93.0848 129.759 86.4472L129.808 86.4045C133.364 83.1923 138.08 81.1992 143.259 81.1322H143.271L143.295 81.1383Z" fill="#EBB30E"/>
<path d="M181.17 234.101C181.165 238.818 182.352 243.459 184.62 247.594H98.6794C93.4835 247.582 88.504 245.513 84.83 241.839C81.156 238.165 79.0865 233.185 79.0742 227.989V198.589C79.111 185.603 84.2858 173.16 93.4681 163.978C102.65 154.796 115.094 149.621 128.079 149.584H212.844C214.639 155.586 217.564 161.19 221.463 166.094C210.197 168.031 199.977 173.883 192.605 182.619C185.233 191.356 181.183 202.415 181.17 213.846V234.101ZM172.179 134.884C162.276 134.884 152.595 131.947 144.36 126.445C136.126 120.943 129.708 113.123 125.918 103.973C122.128 94.8236 121.137 84.7556 123.069 75.0424C125.001 65.3292 129.77 56.4071 136.773 49.4043C143.775 42.4015 152.697 37.6325 162.411 35.7004C172.124 33.7684 182.192 34.76 191.341 38.5499C200.491 42.3398 208.311 48.7577 213.813 56.9922C219.315 65.2266 222.252 74.9077 222.252 84.8111C222.252 98.0913 216.977 110.828 207.586 120.218C198.196 129.608 185.46 134.884 172.179 134.884Z" fill="#01494A"/>
<path d="M324.085 234.102C324.072 237.676 322.647 241.101 320.119 243.629C317.591 246.157 314.166 247.582 310.592 247.595H209.363C205.788 247.582 202.363 246.157 199.835 243.629C197.307 241.101 195.882 237.676 195.87 234.102V213.846C195.898 204.909 199.461 196.345 205.781 190.025C212.101 183.706 220.665 180.142 229.602 180.114H290.336C299.274 180.142 307.838 183.706 314.158 190.025C320.477 196.345 324.041 204.909 324.069 213.846L324.085 234.102ZM294.452 135.503C294.452 142.322 292.431 148.987 288.642 154.657C284.854 160.326 279.47 164.745 273.17 167.354C266.871 169.964 259.939 170.646 253.251 169.316C246.564 167.986 240.421 164.702 235.599 159.881C230.778 155.059 227.494 148.917 226.164 142.229C224.834 135.541 225.517 128.61 228.126 122.31C230.735 116.01 235.154 110.626 240.824 106.838C246.493 103.05 253.159 101.028 259.977 101.028C269.121 101.028 277.89 104.66 284.355 111.125C290.82 117.591 294.452 126.36 294.452 135.503Z" fill="#019497"/>
</svg>
